<svg xmlns="http://www.w3.org/2000/svg" viewBox="0 0 48 48" role="img" aria-label="Stitch by Google">
  <!-- Stitch (Google Labs) — blue app tile with stitch mark -->
  <rect width="48" height="48" rx="12" fill="#1A73E8"/>
  <path fill="#fff" d="M15 16h18a2 2 0 0 1 2 2v12a2 2 0 0 1-2 2H15a2 2 0 0 1-2-2V18a2 2 0 0 1 2-2zm2 4v10h14V20H17zm3.2 2.2h2.4v5.6h-2.4v-5.6zm5.2 0h2.4v5.6h-2.4v-5.6z"/>
  <circle cx="34.5" cy="14.5" r="3.2" fill="#34A853"/>
  <path stroke="#fff" stroke-width="1.4" stroke-linecap="round" d="M33.4 13.4l1.1 1.1 2.2-2.2"/>
</svg>
